# xmcd
#
# Track frame offsets: 
#        150
#        14857
#        37726
#        55172
#        77564
#        94947
#        115599
#        129678
#        145989
#        158910
#
# Disc length: 2331 seconds
#
# Revision: 0
# Processed by: cddbd v1.5.2PL0 Copyright (c) Steve Scherf et al.
# Submitted via: ExactAudioCopy v0.99pb3
#
DISCID=7f09190a
DTITLE=Big Martin - Low Fi Life Style
DYEAR=2004
DGENRE=Blues
TTITLE0=Low Fi Life Style
TTITLE1=Lesson To Be Learnt
TTITLE2=Ain't Leaving you no more
TTITLE3=Can't Trust You Woman
TTITLE4=Make Your Move
TTITLE5=Gettin' Back Up Again
TTITLE6=I'm In Trouble
TTITLE7=What A Come Down
TTITLE8=I Cry In Pain
TTITLE9=If I Told You
EXTD=
EXTT0=
EXTT1=
EXTT2=
EXTT3=
EXTT4=
EXTT5=
EXTT6=
EXTT7=
EXTT8=
EXTT9=
PLAYORDER=
